<svg id="Layer_1" data-name="Layer 1" xmlns="http://www.w3.org/2000/svg" viewBox="0 0 128 128"><title>CRANE</title><path d="M115,28.75A1.75,1.75,0,0,0,116.75,27V20.633a1.744,1.744,0,0,0-1.536-1.729c-.009,0-.017-.011-.026-.012L44.416,11.26a1.723,1.723,0,0,0-.187-.01h-4.9a1.749,1.749,0,0,0-.487.069L12.513,18.952c-.008,0-.014.012-.022.015a1.744,1.744,0,0,0-1.241,1.666V27A1.75,1.75,0,0,0,13,28.75H36.858l-.251,5.5H34.778a1.75,1.75,0,0,0-1.749,1.684L30.378,105.75h-3.35a1.75,1.75,0,0,0-1.75,1.75v5.75H13a1.75,1.75,0,0,0,0,3.5H115a1.75,1.75,0,0,0,0-3.5h-4.114v-5.259a1.75,1.75,0,0,0-1.75-1.75h-9.15v-5.258a1.75,1.75,0,0,0-1.75-1.75h-9.15V93.975a1.75,1.75,0,0,0-1.75-1.75h-21.8a1.75,1.75,0,0,0-1.75,1.75v7.009a1.75,1.75,0,0,0,1.75,1.75h9.15v3.508h-9.15a1.75,1.75,0,0,0-1.75,1.75v5.259H58.278V107.5a1.75,1.75,0,0,0-1.75-1.75H53.179L50.527,35.934a1.75,1.75,0,0,0-1.749-1.684H46.95l-.251-5.5H87.417V56.583H84.854a1.75,1.75,0,0,0-1.729,1.478l-1,6.334a1.749,1.749,0,0,0,.228,1.173l2,3.333a1.751,1.751,0,0,0,1.5.85h1.563V72.5a1.75,1.75,0,0,0,1.75,1.75.882.882,0,1,1-.732,1.374,1.75,1.75,0,1,0-2.9,1.959,4.381,4.381,0,1,0,5.383-6.463V69.75h1.563a1.751,1.751,0,0,0,1.5-.85l2-3.333a1.749,1.749,0,0,0,.228-1.173l-1-6.334a1.75,1.75,0,0,0-1.729-1.478H90.917V28.75ZM92.651,64.312,91.488,66.25H86.846l-1.163-1.938.667-4.229h5.635ZM37.309,18.883H25.321L37.47,15.361Zm3.658-4.133h1.638l.155,4.133H40.8Zm5.282,4.133-.179-3.924,36.383,3.924Zm-31.5,3.5h98.5V25.25H14.75Zm32.531,20.3-2.472-1.746,2.343-1.655Zm-8.54-1.746-2.466,1.741.129-3.392Zm3.034,2.143,4.653,3.286-4.653,4.5-4.654-4.5ZM39.258,53.3l-3.515,3.4.249-6.556Zm5.213,27.9L48.61,77.67l.278,7.307ZM48.2,88.994l-6.425,6.384-6.425-6.384,6.425-5.487ZM41.776,69.525l5.693,4.516L41.776,78.9l-5.693-4.862Zm-6.547.726.218-5.746,3.513,2.786Zm9.363-2.96L48.11,64.5l.219,5.755Zm-2.816-2.234-5.293-4.2,5.293-5.118,5.294,5.118ZM39.081,81.2l-4.41,3.767.277-7.3Zm.212,16.64-5.312,5.278.386-10.171Zm2.483,2.467,5.474,5.439H36.3Zm2.483-2.467,4.932-4.9.387,10.184Zm3.555-41.136-3.52-3.4,3.271-3.163ZM41.775,38.8,40.29,37.75h2.97Zm65.61,74.451h-18.3v-3.509h18.3Zm-40.1-17.525h18.3v3.509h-18.3Zm10.9,7.009h18.3v3.508h-18.3Zm-10.9,7.008h18.3v3.509h-18.3ZM54.778,113.25h-26v-4h26Zm-11.331-79H40.11l.251-5.5H43.2Z"/></svg>