<svg id="Layer_1" data-name="Layer 1" xmlns="http://www.w3.org/2000/svg" viewBox="0 0 128 128"><title>IDEA</title><path d="M81.746,32.694a26.619,26.619,0,0,0-44.225,17.07A26.772,26.772,0,0,0,39.713,63.44a76.416,76.416,0,0,1,7.153,31.4v1.6H45.3a1.75,1.75,0,1,0,0,3.5h5.35v6.825a5.014,5.014,0,0,0,5.008,5.009h1.463a6.726,6.726,0,0,0,6.481,4.97h.789a6.726,6.726,0,0,0,6.481-4.97h1.463a5.014,5.014,0,0,0,5.008-5.009V99.946H82.7a1.75,1.75,0,1,0,0-3.5H81.134v-1.6a68.511,68.511,0,0,1,6.759-30.566A26.328,26.328,0,0,0,90.62,52.536,26.661,26.661,0,0,0,81.746,32.694ZM64.395,113.25h-.789a3.216,3.216,0,0,1-2.7-1.47h6.181A3.216,3.216,0,0,1,64.395,113.25Zm9.452-6.479a1.51,1.51,0,0,1-1.508,1.509H55.661a1.51,1.51,0,0,1-1.508-1.509V99.946H73.847Zm-11.3-41.545A19.318,19.318,0,0,0,58.893,54.7a6.207,6.207,0,1,1,10.314-.148A21.69,21.69,0,0,0,65.434,66l-.647,30.442H63.213Zm22.2-2.5a71.974,71.974,0,0,0-7.119,32.113v1.6H68.287l.646-30.368a18.255,18.255,0,0,1,3.2-9.618,9.7,9.7,0,0,0-1.68-12.534,9.7,9.7,0,0,0-14.44,12.766A15.632,15.632,0,0,1,59.05,65.3l.662,31.146H50.366v-1.6A79.889,79.889,0,0,0,42.9,62,23.123,23.123,0,0,1,61.343,29.564,23.127,23.127,0,0,1,84.753,62.73Z"/><path d="M64,23.25a1.75,1.75,0,0,0,1.75-1.75V14a1.75,1.75,0,0,0-3.5,0v7.5A1.75,1.75,0,0,0,64,23.25Z"/><path d="M89.755,23.943l-5.3,5.3a1.75,1.75,0,1,0,2.475,2.475l5.3-5.3a1.75,1.75,0,0,0-2.475-2.475Z"/><path d="M102.173,50.423h-7.5a1.75,1.75,0,0,0,0,3.5h7.5a1.75,1.75,0,0,0,0-3.5Z"/><path d="M33.327,50.423h-7.5a1.75,1.75,0,0,0,0,3.5h7.5a1.75,1.75,0,0,0,0-3.5Z"/><path d="M42.311,32.234a1.75,1.75,0,0,0,1.237-2.987l-5.3-5.3a1.75,1.75,0,0,0-2.475,2.475l5.3,5.3A1.744,1.744,0,0,0,42.311,32.234Z"/></svg>