<svg id="Layer_1" data-name="Layer 1" xmlns="http://www.w3.org/2000/svg" viewBox="0 0 128 128"><title>ARCHITECT STUDENT</title><path d="M96.347,73.638H85.973A26.068,26.068,0,0,0,90.11,62.819a7.255,7.255,0,0,0,3.787-12.1,6.347,6.347,0,0,0-3.522-11.489v-.245A26.42,26.42,0,0,0,69.286,13.145l-.043-.008a26.442,26.442,0,0,0-10.485,0l-.043.008A26.42,26.42,0,0,0,37.625,38.987v.245A6.347,6.347,0,0,0,34.1,50.721,7.241,7.241,0,0,0,37.888,62.8a26.069,26.069,0,0,0,4.139,10.836H31.653a20.427,20.427,0,0,0-20.4,20.4v19.6a1.75,1.75,0,0,0,3.5,0v-19.6a16.923,16.923,0,0,1,16.9-16.9H44.433l8.214,15.675a1.749,1.749,0,0,0,1.212.9,1.723,1.723,0,0,0,.338.033,1.755,1.755,0,0,0,1.126-.41l2.246-1.888,4.426,3.67-5.35,18.018a1.75,1.75,0,1,0,3.355,1l4-13.475,4,13.475a1.749,1.749,0,0,0,1.677,1.252,1.768,1.768,0,0,0,.5-.072,1.75,1.75,0,0,0,1.18-2.176l-5.35-18.018,4.426-3.67,2.246,1.888a1.755,1.755,0,0,0,1.126.41,1.723,1.723,0,0,0,.338-.033,1.749,1.749,0,0,0,1.212-.9l8.214-15.675H96.347a16.923,16.923,0,0,1,16.9,16.9v19.6a1.75,1.75,0,1,0,3.5,0v-19.6A20.427,20.427,0,0,0,96.347,73.638Zm-29.18-57.3v9.442H60.833V16.337a22.47,22.47,0,0,1,6.334,0ZM45.344,25.775l3.012,4.263a1.75,1.75,0,0,0,2.859-2.02l-3.549-5.024a22.9,22.9,0,0,1,9.667-5.889V27.528a1.75,1.75,0,0,0,1.75,1.75h9.834a1.75,1.75,0,0,0,1.75-1.75V17.106a22.9,22.9,0,0,1,9.667,5.889l-3.549,5.024a1.75,1.75,0,0,0,2.859,2.02l3.012-4.263a22.742,22.742,0,0,1,4.219,13.212v.234H41.125v-.234A22.742,22.742,0,0,1,45.344,25.775ZM37.83,42.722H90.17a2.859,2.859,0,0,1,0,5.718H37.83a2.859,2.859,0,0,1,0-5.718Zm1.545,16.75a3.766,3.766,0,0,1,0-7.532h49.25a3.768,3.768,0,0,1,.089,7.535c-.045,0-.138-.008-.184-.008a1.751,1.751,0,0,0-1.744,1.6,22.868,22.868,0,0,1-45.572,0A1.839,1.839,0,0,0,39.375,59.472ZM54.736,89.26l-3.819-7.288a26.223,26.223,0,0,0,8.733,3.157L56.467,87.8l-.005,0ZM64,92.239l-3.71-3.076L64,86.044l3.71,3.119Zm9.264-2.979L68.35,85.128a26.224,26.224,0,0,0,8.733-3.157Z"/><path d="M50.5,58.722h2.057a2.276,2.276,0,0,0,4.358-.031,1.748,1.748,0,0,0-.311-3.469H50.5a1.75,1.75,0,0,0,0,3.5Z"/><path d="M71.087,58.69a2.276,2.276,0,0,0,4.358.031H77.5a1.75,1.75,0,0,0,0-3.5H71.4a1.748,1.748,0,0,0-.311,3.469Z"/><path d="M96.86,96.268a1.75,1.75,0,0,0-1.75,1.75v15.62a1.75,1.75,0,0,0,3.5,0V98.018A1.75,1.75,0,0,0,96.86,96.268Z"/><path d="M31.14,96.268a1.75,1.75,0,0,0-1.75,1.75v15.62a1.75,1.75,0,0,0,3.5,0V98.018A1.75,1.75,0,0,0,31.14,96.268Z"/><path d="M89.5,102H76.375a1.75,1.75,0,0,0-1.75,1.75v5a1.75,1.75,0,0,0,1.75,1.75H89.5a1.75,1.75,0,0,0,1.75-1.75v-5A1.75,1.75,0,0,0,89.5,102Zm-1.75,5H78.125v-1.5H87.75Z"/></svg>